PathFileType	3	(X/Y/Z)	D:\minhoCalibration\240510\subject5_KPNP\preferred\preferred14.trc
DataRate	CameraRate	NumFrames	NumMarkers	Units	OrigDataRate	OrigDataStartFrame	OrigNumFrames
200.0	200.0	12	10	mm	200.0	255	128	
Frame#	Time	Left_Ankle_Outer1			Left_Ankle_Inner1			Left_Knee_Outer1			Left_Knee_Inner1			Left_Wrist1			Right_Wrist1			Right_Knee_Inner1			Right_Knee_Outer1			Right_Ankle_Inner1			Right_Ankle_Outer1			
		X1	Y1	Z1	X2	Y2	Z2	X3	Y3	Z3	X4	Y4	Z4	X5	Y5	Z5	X6	Y6	Z6	X7	Y7	Z7	X8	Y8	Z8	X9	Y9	Z9	X10	Y10	Z10	
255	1.265	163.35271	80.365005	-519.70209	115.94082	97.680534	-509.49466	298.02756	523.34442	-386.32803	213.87271	512.52502	-343.396	316.27264	947.24304	-600.43811	136.05208	1181.4197	-437.47897	-65.002602	959.46777	-12.91204	-49.415043	1050.9377	-28.519243	-515.96326	943.88959	-143.53448	-492.53815	1037.7545	-166.41891
256	1.27	162.2693	80.488869	-519.40295	114.79125	97.850807	-508.87811	296.86407	523.64716	-385.38959	212.73344	512.61298	-342.68573	314.44522	946.67377	-600.43207	135.47601	1181.5793	-437.68411	-62.298996	962.95935	-12.798675	-45.717556	1053.6754	-28.557642	-524.02289	957.77161	-99.987137	-501.1297	1051.1198	-125.46629
257	1.275	161.44472	80.81456	-519.64056	113.3922	97.680527	-508.24213	295.60001	523.74591	-384.59842	211.66425	512.66675	-341.9744	312.8064	946.11993	-600.1521	134.99597	1182.3362	-438.3721	-61.176655	966.16974	-13.886631	-43.250725	1056.0193	-29.411022	-529.1568	970.50708	-54.563259	-507.5506	1063.8145	-82.707047
258	1.28	159.61855	80.562721	-518.9826	112.1599	97.595619	-507.64984	294.56754	523.88422	-384.16476	210.62726	512.58783	-341.5592	311.15616	945.5506	-599.46002	132.32962	1183.3153	-437.72388	-61.738499	969.06287	-16.36401	-42.531395	1057.9619	-31.37044	-531.6991	983.47534	-6.1838098	-511.08945	1075.6693	-38.481594
259	1.285	158.66533	80.397415	-519.0896	111.35035	96.825905	-506.99704	293.3634	523.91821	-383.8139	209.72908	512.43384	-341.26599	310.20834	945.17352	-598.95374	131.99187	1182.9463	-439.06543	-63.90152	971.80164	-20.027084	-43.08963	1059.7343	-33.671719	-529.79913	994.61102	42.199314	-511.42377	1086.8358	6.5144572
260	1.29	158.15941	80.332642	-519.39752	110.05988	96.676346	-507.05869	292.14224	523.71094	-383.83005	208.56407	512.26801	-340.97665	308.7182	944.63641	-597.73651	130.95125	1183.4458	-440.16812	-67.812599	974.7359	-24.286518	-45.45023	1061.4991	-36.767017	-522.68658	1005.1297	91.604111	-507.81155	1096.5961	52.13398
261	1.295	157.38608	79.66275	-519.40796	109.43316	96.037689	-507.03882	290.7684	523.45093	-384.04132	207.42654	511.87552	-340.89221	308.02786	944.52399	-596.69092	128.88295	1184.0447	-440.67493	-73.241714	977.69678	-28.668953	-49.099751	1063.6799	-40.252605	-512.82776	1014.6488	135.03412	-500.19931	1105.0245	97.259834
262	1.3	156.96443	78.951332	-519.71259	108.88701	95.252197	-507.17844	289.3833	523.21918	-384.27481	206.14162	511.55115	-340.97256	306.8732	944.34381	-594.92957	126.98072	1184.2157	-441.68143	-79.217468	980.98273	-32.728962	-53.80331	1066.2201	-44.136753	-495.06323	1020.1901	178.92737	-488.21408	1111.3361	140.89078
263	1.305	156.70406	78.049217	-520.04028	108.63239	94.452034	-507.50412	287.69846	522.73889	-384.64462	204.62257	510.92941	-341.1106	305.75635	944.30219	-592.83875	124.53876	1184.5865	-442.14694	-86.491982	985.03528	-36.370613	-59.337383	1069.4983	-48.426037	-473.84494	1024.6952	222.38676	-471.77472	1114.6514	182.02925
264	1.31	156.44199	77.249741	-520.25983	108.43739	93.045898	-507.26849	286.39383	522.5675	-384.86636	203.25055	510.30927	-341.38196	304.18207	944.21606	-590.06586	122.36237	1184.8894	-442.8667	-94.471497	990.04871	-39.73267	-65.484268	1074.1664	-52.726555	-453.32687	1023.899	248.5372	-453.7843	1114.2892	214.46272
265	1.315	156.15721	76.364052	-520.57617	108.06923	91.997101	-507.96191	284.89886	522.13519	-385.07074	201.59555	509.69928	-341.52429	303.18768	944.57355	-587.3172	119.44415	1185.194	-443.02585	-100.65919	995.66827	-41.741287	-71.691124	1080.6752	-55.623146	-437.08899	1020.3409	263.15256	-441.59177	1113.9717	226.29016
266	1.32	154.92007	74.989349	-520.58356	107.36244	91.459999	-508.91583	283.25632	521.66846	-385.24228	200.17177	508.85583	-341.80908	301.78326	944.70056	-583.9433	116.64357	1185.3242	-442.99698	-104.87554	1001.4111	-41.776398	-77.068611	1087.3241	-56.665043	-426.34442	1016.1642	265.69901	-438.52731	1108.7389	233.55205
